<svg width="101" height="101" viewBox="0 0 101 101" fill="none" xmlns="http://www.w3.org/2000/svg">
<path d="M54.9277 23.0579C54.9277 15.0163 48.386 8.47461 40.3444 8.47461C31.8694 8.47461 26.8027 14.8288 26.8027 20.9746H35.136C35.136 19.2454 36.7527 16.8079 40.3444 16.8079C43.7902 16.8079 46.5944 19.6121 46.5944 23.0579C46.5944 26.5038 43.7902 29.3079 40.3444 29.3079H9.09436V37.6413H40.3444C48.386 37.6413 54.9277 31.0996 54.9277 23.0579ZM65.3444 62.6413H34.0944V70.9746H65.3444C68.7902 70.9746 71.5944 73.7788 71.5944 77.2246C71.5944 80.6704 68.7902 83.4746 65.3444 83.4746C61.7527 83.4746 60.136 81.0371 60.136 79.3079H51.8027C51.8027 85.4538 56.8694 91.808 65.3444 91.808C73.386 91.808 79.9277 85.2663 79.9277 77.2246C79.9277 69.1829 73.386 62.6413 65.3444 62.6413Z" fill="#FFDE59"/>
<path d="M75.761 20.9746C66.5694 20.9746 59.0944 28.4496 59.0944 37.6413H67.4277C67.4277 33.0454 71.1652 29.3079 75.761 29.3079C80.3569 29.3079 84.0944 33.0454 84.0944 37.6413C84.0944 42.2371 80.3569 45.9746 75.761 45.9746H9.09436V54.3079H75.761C84.9527 54.3079 92.4277 46.8329 92.4277 37.6413C92.4277 28.4496 84.9527 20.9746 75.761 20.9746ZM9.09436 62.6413H25.761V70.9746H9.09436V62.6413Z" fill="#FFDE59"/>
</svg>
