<svg width="278" height="59" viewBox="0 0 278 59" fill="none" xmlns="http://www.w3.org/2000/svg">
<rect x="9.65723" y="5.58832" width="35.2072" height="5.05887" fill="#F1DB25"/>
<rect x="9.65723" y="23.2085" width="35.2072" height="5.05887" fill="#F1DB25"/>
<rect x="6.55273" y="32.0186" width="30.2446" height="5.05887" fill="white"/>
<rect x="17.6426" y="14.3984" width="21.6497" height="5.05887" fill="white"/>
<rect x="9.65723" y="40.8286" width="35.2072" height="5.05887" fill="#F1DB25"/>
<rect x="1.42285" y="14.3984" width="5.57278" height="43.7441" fill="white"/>
<rect x="39.292" y="28.2673" width="5.57278" height="12.5613" fill="#F1DB25"/>
<rect x="9.65723" y="10.6472" width="5.57278" height="12.5613" fill="#F1DB25"/>
<path d="M76.792 23.535C76.792 23.2615 76.7497 23.0174 76.665 22.8026C76.5869 22.5812 76.4404 22.3826 76.2256 22.2068C76.0173 22.0246 75.721 21.8488 75.3369 21.6795C74.9593 21.5037 74.471 21.3214 73.8721 21.1326C73.208 20.9243 72.5895 20.6899 72.0166 20.4295C71.4437 20.1691 70.9391 19.8664 70.5029 19.5213C70.0732 19.1762 69.738 18.7791 69.4971 18.3299C69.2562 17.8742 69.1357 17.3468 69.1357 16.7479C69.1357 16.1619 69.2594 15.6281 69.5068 15.1463C69.7607 14.6645 70.1188 14.2511 70.5811 13.9061C71.0433 13.5545 71.5869 13.2843 72.2119 13.0955C72.8434 12.9067 73.54 12.8123 74.3018 12.8123C75.3564 12.8123 76.2679 13.0044 77.0361 13.3885C77.8109 13.7726 78.4098 14.2934 78.833 14.951C79.2562 15.6085 79.4678 16.3475 79.4678 17.1678H76.792C76.792 16.7251 76.6976 16.3345 76.5088 15.9959C76.3265 15.6574 76.0465 15.3904 75.6689 15.1951C75.2979 14.9998 74.8291 14.9022 74.2627 14.9022C73.7158 14.9022 73.2601 14.9835 72.8955 15.1463C72.5374 15.3091 72.2673 15.5304 72.085 15.8104C71.9092 16.0903 71.8213 16.4028 71.8213 16.7479C71.8213 17.0083 71.8831 17.2427 72.0068 17.451C72.1305 17.6528 72.3161 17.8449 72.5635 18.0272C72.8109 18.2029 73.1169 18.369 73.4814 18.5252C73.8525 18.6749 74.2822 18.8247 74.7705 18.9744C75.5518 19.2088 76.2354 19.4692 76.8213 19.7557C77.4137 20.0421 77.9053 20.3677 78.2959 20.7322C78.693 21.0968 78.9893 21.507 79.1846 21.9627C79.3864 22.4184 79.4873 22.936 79.4873 23.5154C79.4873 24.1274 79.3669 24.6743 79.126 25.1561C78.8851 25.6378 78.54 26.048 78.0908 26.3865C77.6416 26.7251 77.1012 26.9822 76.4697 27.158C75.8447 27.3338 75.1449 27.4217 74.3701 27.4217C73.68 27.4217 72.9964 27.3305 72.3193 27.1483C71.6488 26.9595 71.04 26.6795 70.4932 26.3084C69.9463 25.9308 69.5101 25.4555 69.1846 24.8826C68.859 24.3032 68.6963 23.6261 68.6963 22.8514H71.3916C71.3916 23.3006 71.4632 23.6847 71.6064 24.0037C71.7562 24.3162 71.9645 24.5734 72.2314 24.7752C72.5049 24.9705 72.8239 25.1137 73.1885 25.2049C73.5531 25.296 73.9469 25.3416 74.3701 25.3416C74.917 25.3416 75.3662 25.2667 75.7178 25.117C76.0758 24.9608 76.3428 24.7459 76.5186 24.4725C76.7008 24.199 76.792 23.8865 76.792 23.535ZM93.3533 13.0076V27.2264H90.6775V13.0076H93.3533ZM97.7674 13.0076V15.1268H86.3123V13.0076H97.7674ZM105.247 13.0076H110.413C111.493 13.0076 112.421 13.1704 113.196 13.4959C113.971 13.8214 114.566 14.3032 114.983 14.9412C115.4 15.5792 115.608 16.3637 115.608 17.2947C115.608 18.0304 115.478 18.6684 115.217 19.2088C114.957 19.7492 114.589 20.2016 114.114 20.5662C113.645 20.9308 113.092 21.2173 112.454 21.4256L111.614 21.8553H107.053L107.034 19.7361H110.442C110.995 19.7361 111.454 19.6385 111.819 19.4432C112.184 19.2479 112.457 18.9777 112.639 18.6326C112.828 18.2876 112.922 17.8937 112.922 17.451C112.922 16.9757 112.831 16.5656 112.649 16.2205C112.467 15.869 112.19 15.5988 111.819 15.41C111.448 15.2212 110.979 15.1268 110.413 15.1268H107.932V27.2264H105.247V13.0076ZM113.274 27.2264L109.983 20.8592L112.825 20.8494L116.155 27.0897V27.2264H113.274ZM127.003 13.0076V27.2264H124.318V13.0076H127.003ZM141.084 24.4432L144.629 13.0076H147.608L142.588 27.2264H140.606L141.084 24.4432ZM137.813 13.0076L141.338 24.4432L141.846 27.2264H139.844L134.844 13.0076H137.813ZM164.677 25.117V27.2264H157.118V25.117H164.677ZM157.938 13.0076V27.2264H155.253V13.0076H157.938ZM163.69 18.8768V20.9373H157.118V18.8768H163.69ZM164.647 13.0076V15.1268H157.118V13.0076H164.647ZM183.957 15.1658L179.904 27.2264H177.063L182.375 13.0076H184.192L183.957 15.1658ZM187.346 27.2264L183.274 15.1658L183.029 13.0076H184.856L190.197 27.2264H187.346ZM187.16 21.9432V24.0623H179.533V21.9432H187.16ZM203.688 13.0076V27.2264H200.993L194.948 17.3631V27.2264H192.262V13.0076H194.948L201.012 22.8807V13.0076H203.688ZM211.271 27.2264H208.204L208.224 25.117H211.271C212.097 25.117 212.791 24.9347 213.351 24.5701C213.91 24.199 214.334 23.6684 214.62 22.9783C214.907 22.2817 215.05 21.4484 215.05 20.4783V19.7459C215.05 18.9972 214.968 18.3364 214.806 17.7635C214.643 17.1906 214.402 16.7088 214.083 16.3182C213.771 15.9276 213.383 15.6313 212.921 15.4295C212.459 15.2277 211.928 15.1268 211.329 15.1268H208.146V13.0076H211.329C212.28 13.0076 213.146 13.1671 213.927 13.4861C214.715 13.8052 215.395 14.2641 215.968 14.8631C216.547 15.4555 216.99 16.1652 217.296 16.992C217.608 17.8188 217.765 18.7433 217.765 19.7654V20.4783C217.765 21.494 217.608 22.4184 217.296 23.2518C216.99 24.0786 216.547 24.7882 215.968 25.3807C215.395 25.9731 214.711 26.4289 213.917 26.7479C213.123 27.0669 212.241 27.2264 211.271 27.2264ZM209.708 13.0076V27.2264H207.022V13.0076H209.708ZM240.077 13.0076V27.2264H237.391V13.0076H240.077ZM245.809 19.1502V21.2693H239.374V19.1502H245.809ZM246.561 13.0076V15.1268H239.374V13.0076H246.561ZM257.429 13.0076V27.2264H254.744V13.0076H257.429ZM268.649 13.0076L271.49 18.076L274.342 13.0076H277.428L273.209 20.0584L277.535 27.2264H274.42L271.49 22.0604L268.571 27.2264H265.446L269.772 20.0584L265.553 13.0076H268.649Z" fill="white"/>
<path d="M71.582 47.2263H70.1855V41.6257H68.0811V40.2244H73.6816V41.6257H71.582V47.2263ZM80.5236 47.2263H75.7238V40.2244H80.5236V41.6257H77.1252V43.0271H79.425V44.4285H77.1252V45.825H80.5236V47.2263ZM88.2201 46.5085C87.8946 46.7885 87.53 47.0033 87.1264 47.1531C86.7227 47.3028 86.3044 47.3777 85.8715 47.3777C85.5395 47.3777 85.2188 47.3337 84.9096 47.2458C84.6036 47.1612 84.3155 47.0408 84.0453 46.8845C83.7784 46.725 83.5342 46.5346 83.3129 46.3132C83.0915 46.0919 82.9011 45.8477 82.7416 45.5808C82.5854 45.3106 82.4633 45.0225 82.3754 44.7166C82.2908 44.4073 82.2484 44.0867 82.2484 43.7546C82.2484 43.4226 82.2908 43.102 82.3754 42.7927C82.4633 42.4835 82.5854 42.1954 82.7416 41.9285C82.9011 41.6583 83.0915 41.4125 83.3129 41.1912C83.5342 40.9698 83.7784 40.781 84.0453 40.6248C84.3155 40.4653 84.6036 40.3432 84.9096 40.2585C85.2188 40.1707 85.5395 40.1267 85.8715 40.1267C86.3044 40.1267 86.7227 40.2016 87.1264 40.3513C87.53 40.4978 87.8946 40.7126 88.2201 40.9958L87.4779 42.2166C87.2729 41.9952 87.0303 41.8259 86.7504 41.7087C86.4704 41.5883 86.1775 41.5281 85.8715 41.5281C85.5622 41.5281 85.2725 41.5867 85.0023 41.7039C84.7322 41.821 84.4962 41.9806 84.2943 42.1824C84.0925 42.3809 83.933 42.6169 83.8158 42.8904C83.6986 43.1606 83.64 43.4486 83.64 43.7546C83.64 44.0606 83.6986 44.3487 83.8158 44.6189C83.933 44.8858 84.0925 45.1202 84.2943 45.322C84.4962 45.5238 84.7322 45.6833 85.0023 45.8005C85.2725 45.9177 85.5622 45.9763 85.8715 45.9763C86.1775 45.9763 86.4704 45.9177 86.7504 45.8005C87.0303 45.6801 87.2729 45.5092 87.4779 45.2878L88.2201 46.5085ZM91.7369 47.2263H90.3355V40.2244H91.7369V43.0271H94.5348V40.2244H95.9361V47.2263H94.5348V44.4285H91.7369V47.2263ZM104.14 47.2263H102.641L99.9412 42.6169V47.2263H98.5398V40.2244H100.039L102.739 44.8386V40.2244H104.14V47.2263ZM108.146 47.2263H106.744V40.2244H108.146V47.2263ZM116.34 46.5085C116.015 46.7885 115.65 47.0033 115.246 47.1531C114.843 47.3028 114.424 47.3777 113.991 47.3777C113.659 47.3777 113.339 47.3337 113.029 47.2458C112.724 47.1612 112.435 47.0408 112.165 46.8845C111.898 46.725 111.654 46.5346 111.433 46.3132C111.211 46.0919 111.021 45.8477 110.862 45.5808C110.705 45.3106 110.583 45.0225 110.495 44.7166C110.411 44.4073 110.368 44.0867 110.368 43.7546C110.368 43.4226 110.411 43.102 110.495 42.7927C110.583 42.4835 110.705 42.1954 110.862 41.9285C111.021 41.6583 111.211 41.4125 111.433 41.1912C111.654 40.9698 111.898 40.781 112.165 40.6248C112.435 40.4653 112.724 40.3432 113.029 40.2585C113.339 40.1707 113.659 40.1267 113.991 40.1267C114.424 40.1267 114.843 40.2016 115.246 40.3513C115.65 40.4978 116.015 40.7126 116.34 40.9958L115.598 42.2166C115.393 41.9952 115.15 41.8259 114.87 41.7087C114.59 41.5883 114.297 41.5281 113.991 41.5281C113.682 41.5281 113.392 41.5867 113.122 41.7039C112.852 41.821 112.616 41.9806 112.414 42.1824C112.212 42.3809 112.053 42.6169 111.936 42.8904C111.819 43.1606 111.76 43.4486 111.76 43.7546C111.76 44.0606 111.819 44.3487 111.936 44.6189C112.053 44.8858 112.212 45.1202 112.414 45.322C112.616 45.5238 112.852 45.6833 113.122 45.8005C113.392 45.9177 113.682 45.9763 113.991 45.9763C114.297 45.9763 114.59 45.9177 114.87 45.8005C115.15 45.6801 115.393 45.5092 115.598 45.2878L116.34 46.5085ZM122.577 44.4285V43.0271C122.577 42.835 122.539 42.6544 122.464 42.4851C122.393 42.3126 122.293 42.1628 122.166 42.0359C122.039 41.9089 121.89 41.8097 121.717 41.738C121.548 41.6632 121.367 41.6257 121.175 41.6257C120.983 41.6257 120.801 41.6632 120.628 41.738C120.459 41.8097 120.311 41.9089 120.184 42.0359C120.057 42.1628 119.956 42.3126 119.881 42.4851C119.81 42.6544 119.774 42.835 119.774 43.0271V44.4285H122.577ZM123.978 47.2263H122.577V45.825H119.774V47.2263H118.377V43.0271C118.377 42.6397 118.451 42.2768 118.597 41.9382C118.744 41.5964 118.942 41.2986 119.193 41.0447C119.447 40.7908 119.743 40.5906 120.081 40.4441C120.423 40.2976 120.788 40.2244 121.175 40.2244C121.563 40.2244 121.926 40.2976 122.264 40.4441C122.606 40.5906 122.904 40.7908 123.158 41.0447C123.412 41.2986 123.612 41.5964 123.758 41.9382C123.905 42.2768 123.978 42.6397 123.978 43.0271V47.2263ZM131.396 47.2263H126.494V40.2244H127.895V45.825H131.396V47.2263ZM137.121 42.324C137.121 42.0343 137.176 41.7625 137.287 41.5085C137.398 41.2546 137.548 41.0333 137.736 40.8445C137.928 40.6524 138.151 40.5011 138.405 40.3904C138.659 40.2797 138.931 40.2244 139.221 40.2244H142.434V41.6257H139.221C139.123 41.6257 139.032 41.6436 138.947 41.6794C138.863 41.7153 138.788 41.7657 138.723 41.8308C138.661 41.8927 138.612 41.9659 138.576 42.0505C138.54 42.1352 138.522 42.2263 138.522 42.324C138.522 42.4216 138.54 42.5144 138.576 42.6023C138.612 42.6869 138.661 42.7618 138.723 42.8269C138.788 42.8888 138.863 42.9376 138.947 42.9734C139.032 43.0092 139.123 43.0271 139.221 43.0271H140.622C140.912 43.0271 141.184 43.0824 141.438 43.1931C141.695 43.3005 141.918 43.4503 142.106 43.6423C142.299 43.8311 142.448 44.0541 142.556 44.3113C142.666 44.5652 142.722 44.837 142.722 45.1267C142.722 45.4164 142.666 45.6882 142.556 45.9421C142.448 46.196 142.299 46.419 142.106 46.6111C141.918 46.7999 141.695 46.9496 141.438 47.0603C141.184 47.171 140.912 47.2263 140.622 47.2263H137.512V45.825H140.622C140.72 45.825 140.811 45.807 140.896 45.7712C140.98 45.7354 141.053 45.6866 141.115 45.6248C141.18 45.5597 141.231 45.4848 141.267 45.4001C141.302 45.3155 141.32 45.2244 141.32 45.1267C141.32 45.0291 141.302 44.9379 141.267 44.8533C141.231 44.7686 141.18 44.6954 141.115 44.6335C141.053 44.5684 140.98 44.518 140.896 44.4822C140.811 44.4464 140.72 44.4285 140.622 44.4285H139.221C138.931 44.4285 138.659 44.3731 138.405 44.2625C138.151 44.1518 137.928 44.002 137.736 43.8132C137.548 43.6212 137.398 43.3982 137.287 43.1443C137.176 42.8871 137.121 42.6137 137.121 42.324ZM149.744 47.2263H144.945V40.2244H149.744V41.6257H146.346V43.0271H148.646V44.4285H146.346V45.825H149.744V47.2263ZM153.427 41.6257V44.4285H154.829C155.021 44.4285 155.201 44.3927 155.371 44.321C155.54 44.2462 155.688 44.1453 155.815 44.0183C155.942 43.8914 156.041 43.7432 156.113 43.574C156.188 43.4014 156.225 43.2192 156.225 43.0271C156.225 42.835 156.188 42.6544 156.113 42.4851C156.041 42.3126 155.942 42.1628 155.815 42.0359C155.688 41.9089 155.54 41.8097 155.371 41.738C155.201 41.6632 155.021 41.6257 154.829 41.6257H153.427ZM153.427 47.2263H152.026V40.2244H154.829C155.086 40.2244 155.333 40.2585 155.571 40.3269C155.808 40.392 156.03 40.4864 156.235 40.6101C156.443 40.7306 156.632 40.877 156.801 41.0496C156.974 41.2188 157.12 41.4076 157.241 41.616C157.364 41.8243 157.459 42.0473 157.524 42.2849C157.592 42.5225 157.626 42.7699 157.626 43.0271C157.626 43.268 157.595 43.5024 157.534 43.7302C157.475 43.9581 157.389 44.1746 157.275 44.3796C157.164 44.5847 157.027 44.7735 156.865 44.946C156.702 45.1186 156.52 45.2683 156.318 45.3953L157.094 47.2263H155.605L154.995 45.8152L153.427 45.825V47.2263ZM165.132 40.2244L162.833 47.2263H161.431L159.141 40.2244H160.733L162.129 44.8972L163.531 40.2244H165.132ZM168.508 47.2263H167.106V40.2244H168.508V47.2263ZM176.702 46.5085C176.377 46.7885 176.012 47.0033 175.608 47.1531C175.205 47.3028 174.786 47.3777 174.354 47.3777C174.021 47.3777 173.701 47.3337 173.392 47.2458C173.086 47.1612 172.798 47.0408 172.527 46.8845C172.26 46.725 172.016 46.5346 171.795 46.3132C171.574 46.0919 171.383 45.8477 171.224 45.5808C171.067 45.3106 170.945 45.0225 170.857 44.7166C170.773 44.4073 170.73 44.0867 170.73 43.7546C170.73 43.4226 170.773 43.102 170.857 42.7927C170.945 42.4835 171.067 42.1954 171.224 41.9285C171.383 41.6583 171.574 41.4125 171.795 41.1912C172.016 40.9698 172.26 40.781 172.527 40.6248C172.798 40.4653 173.086 40.3432 173.392 40.2585C173.701 40.1707 174.021 40.1267 174.354 40.1267C174.786 40.1267 175.205 40.2016 175.608 40.3513C176.012 40.4978 176.377 40.7126 176.702 40.9958L175.96 42.2166C175.755 41.9952 175.512 41.8259 175.232 41.7087C174.952 41.5883 174.66 41.5281 174.354 41.5281C174.044 41.5281 173.755 41.5867 173.484 41.7039C173.214 41.821 172.978 41.9806 172.776 42.1824C172.575 42.3809 172.415 42.6169 172.298 42.8904C172.181 43.1606 172.122 43.4486 172.122 43.7546C172.122 44.0606 172.181 44.3487 172.298 44.6189C172.415 44.8858 172.575 45.1202 172.776 45.322C172.978 45.5238 173.214 45.6833 173.484 45.8005C173.755 45.9177 174.044 45.9763 174.354 45.9763C174.66 45.9763 174.952 45.9177 175.232 45.8005C175.512 45.6801 175.755 45.5092 175.96 45.2878L176.702 46.5085ZM183.617 47.2263H178.818V40.2244H183.617V41.6257H180.219V43.0271H182.519V44.4285H180.219V45.825H183.617V47.2263ZM185.411 42.324C185.411 42.0343 185.466 41.7625 185.577 41.5085C185.687 41.2546 185.837 41.0333 186.026 40.8445C186.218 40.6524 186.441 40.5011 186.695 40.3904C186.949 40.2797 187.22 40.2244 187.51 40.2244H190.723V41.6257H187.51C187.412 41.6257 187.321 41.6436 187.237 41.6794C187.152 41.7153 187.077 41.7657 187.012 41.8308C186.95 41.8927 186.901 41.9659 186.866 42.0505C186.83 42.1352 186.812 42.2263 186.812 42.324C186.812 42.4216 186.83 42.5144 186.866 42.6023C186.901 42.6869 186.95 42.7618 187.012 42.8269C187.077 42.8888 187.152 42.9376 187.237 42.9734C187.321 43.0092 187.412 43.0271 187.51 43.0271H188.912C189.201 43.0271 189.473 43.0824 189.727 43.1931C189.984 43.3005 190.207 43.4503 190.396 43.6423C190.588 43.8311 190.738 44.0541 190.845 44.3113C190.956 44.5652 191.011 44.837 191.011 45.1267C191.011 45.4164 190.956 45.6882 190.845 45.9421C190.738 46.196 190.588 46.419 190.396 46.6111C190.207 46.7999 189.984 46.9496 189.727 47.0603C189.473 47.171 189.201 47.2263 188.912 47.2263H185.801V45.825H188.912C189.009 45.825 189.1 45.807 189.185 45.7712C189.27 45.7354 189.343 45.6866 189.405 45.6248C189.47 45.5597 189.52 45.4848 189.556 45.4001C189.592 45.3155 189.61 45.2244 189.61 45.1267C189.61 45.0291 189.592 44.9379 189.556 44.8533C189.52 44.7686 189.47 44.6954 189.405 44.6335C189.343 44.5684 189.27 44.518 189.185 44.4822C189.1 44.4464 189.009 44.4285 188.912 44.4285H187.51C187.22 44.4285 186.949 44.3731 186.695 44.2625C186.441 44.1518 186.218 44.002 186.026 43.8132C185.837 43.6212 185.687 43.3982 185.577 43.1443C185.466 42.8871 185.411 42.6137 185.411 42.324ZM202.239 47.2263H197.337V40.2244H198.738V45.825H202.239V47.2263ZM209.174 47.2263H204.271V40.2244H205.673V45.825H209.174V47.2263ZM216.553 46.5085C216.227 46.7885 215.863 47.0033 215.459 47.1531C215.056 47.3028 214.637 47.3777 214.204 47.3777C213.872 47.3777 213.552 47.3337 213.242 47.2458C212.936 47.1612 212.648 47.0408 212.378 46.8845C212.111 46.725 211.867 46.5346 211.646 46.3132C211.424 46.0919 211.234 45.8477 211.074 45.5808C210.918 45.3106 210.796 45.0225 210.708 44.7166C210.624 44.4073 210.581 44.0867 210.581 43.7546C210.581 43.4226 210.624 43.102 210.708 42.7927C210.796 42.4835 210.918 42.1954 211.074 41.9285C211.234 41.6583 211.424 41.4125 211.646 41.1912C211.867 40.9698 212.111 40.781 212.378 40.6248C212.648 40.4653 212.936 40.3432 213.242 40.2585C213.552 40.1707 213.872 40.1267 214.204 40.1267C214.637 40.1267 215.056 40.2016 215.459 40.3513C215.863 40.4978 216.227 40.7126 216.553 40.9958L215.811 42.2166C215.606 41.9952 215.363 41.8259 215.083 41.7087C214.803 41.5883 214.51 41.5281 214.204 41.5281C213.895 41.5281 213.605 41.5867 213.335 41.7039C213.065 41.821 212.829 41.9806 212.627 42.1824C212.425 42.3809 212.266 42.6169 212.149 42.8904C212.031 43.1606 211.973 43.4486 211.973 43.7546C211.973 44.0606 212.031 44.3487 212.149 44.6189C212.266 44.8858 212.425 45.1202 212.627 45.322C212.829 45.5238 213.065 45.6833 213.335 45.8005C213.605 45.9177 213.895 45.9763 214.204 45.9763C214.51 45.9763 214.803 45.9177 215.083 45.8005C215.363 45.6801 215.606 45.5092 215.811 45.2878L216.553 46.5085Z" fill="#F2F5F9"/>
</svg>
