<svg width="85" height="76" viewBox="0 0 85 76" fill="none" xmlns="http://www.w3.org/2000/svg">
<path d="M17.383 0.432861H25.7163V8.76619H17.383V0.432861ZM25.7163 67.0995H38.2163V75.4329H25.7163V67.0995ZM59.0496 0.432861H67.383V8.76619H59.0496V0.432861ZM46.5496 67.0995H59.0496V75.4329H46.5496V67.0995ZM75.7163 33.7662V25.4329H67.383V17.0995H59.0496V8.76619H50.7163V17.0995H34.0496V8.76619H25.7163V17.0995H17.383V25.4329H9.04964V33.7662H0.716309V67.0995H9.04964V50.4329H17.383V67.0995H25.7163V54.5995H59.0496V67.0995H67.383V50.4329H75.7163V67.0995H84.0497V33.7662H75.7163ZM34.0496 37.9329H25.7163V25.4329H34.0496V37.9329ZM59.0496 37.9329H50.7163V25.4329H59.0496V37.9329Z" fill="#FFDE59"/>
</svg>
